HIERARCHY
ROOT Hips
{
  OFFSET -178.732 97.4303 -394.42
  CHANNELS 6 Xposition Yposition Zposition Zrotation Xrotation Yrotation
  JOINT RightUpLeg
  {
    OFFSET -8.9458 -8.66707 0.101652
    CHANNELS 3 Zrotation Xrotation Yrotation
    JOINT RightLeg
    {
      OFFSET 0 -44.4227 1.3727
      CHANNELS 3 Zrotation Xrotation Yrotation
      JOINT RightFoot
      {
        OFFSET 0.253549 -42.0924 -1.46059
        CHANNELS 3 Zrotation Xrotation Yrotation
        JOINT RightToes
        {
          OFFSET 0.04 -4.41509 8.4991
          CHANNELS 3 Zrotation Xrotation Yrotation
          End Site
          {
            OFFSET -0.08 -0.137448 9.77979
          }
        }
      }
    }
  }
  JOINT Spine
  {
    OFFSET 0 11.8905 0
    CHANNELS 3 Zrotation Xrotation Yrotation
    JOINT Spine1
    {
      OFFSET 0 25.6574 0.127663
      CHANNELS 3 Zrotation Xrotation Yrotation
      JOINT HEad
      {
        OFFSET 0 8.73416 0.011341
        CHANNELS 3 Zrotation Xrotation Yrotation
        End Site
        {
          OFFSET -0.29 12.7742 2.51395
        }
      }
      JOINT LeftShoulder1
      {
        OFFSET 8.99 -0.362252 -0.22
        CHANNELS 3 Zrotation Xrotation Yrotation
        JOINT LeftArm
        {
          OFFSET 10.2827 -0.00338 0.322123
          CHANNELS 3 Zrotation Xrotation Yrotation
          JOINT LeftForeArm
          {
            OFFSET 32.7669 0.099144 -1.42434
            CHANNELS 3 Zrotation Xrotation Yrotation
            JOINT LeftHand
            {
              OFFSET 27.5643 0.085362 1.02216
              CHANNELS 3 Zrotation Xrotation Yrotation
              End Site
              {
                OFFSET 16.7443 -0.6 1.50291
              }
            }
          }
        }
      }
      JOINT RightShoulder
      {
        OFFSET -8.99 -0.362252 -0.22
        CHANNELS 3 Zrotation Xrotation Yrotation
        JOINT RightArm
        {
          OFFSET -10.2827 -0.00338 0.322123
          CHANNELS 3 Zrotation Xrotation Yrotation
          JOINT RightForeArm
          {
            OFFSET -32.8971 0.099144 -1.42434
            CHANNELS 3 Zrotation Xrotation Yrotation
            JOINT RightHand
            {
              OFFSET -27.4921 0.085362 1.02216
              CHANNELS 3 Zrotation Xrotation Yrotation
              End Site
              {
                OFFSET -16.6312 -0.6 1.50291
              }
            }
          }
        }
      }
    }
  }
  JOINT LeftUpLeg
  {
    OFFSET 8.9458 -8.66707 0.101652
    CHANNELS 3 Zrotation Xrotation Yrotation
    JOINT LeftLeg
    {
      OFFSET 0 -44.4227 1.3727
      CHANNELS 3 Zrotation Xrotation Yrotation
      JOINT LeftFoot
      {
        OFFSET -0.253549 -42.0924 -1.46059
        CHANNELS 3 Zrotation Xrotation Yrotation
        JOINT LeftToes
        {
          OFFSET -0.04 -4.41509 8.4991
          CHANNELS 3 Zrotation Xrotation Yrotation
          End Site
          {
            OFFSET 0.08 -0.047448 9.77979
          }
        }
      }
    }
  }
}
MOTION
Frames:	17
Frame Time:	0.0166667
-173.854 96.4086 -390.773 5.43492 17.6114 175.702 -20.8316 -0.820321 11.7294 46.0265 45.0664 -42.9771 -31.8029 2.38599 -1.38785 0.0462048 0.000533403 0.662642 6.39748 27.9767 -4.49574 -0.0223896 0.02292 0.0172405 11.3597 -0.0367864 15.4454 4.41391e-032 -3.18055e-015 7.95139e-016 -143.508 -65.2127 -114.137 -62.4999 54.1091 -48.7664 20.4879 17.2207 -9.6502 7.92398 9.14627 0.331651 112.205 -9.2028 74.3569 13.905 55.9581 101.317 22.861 19.777 2.1492 23.2813 -11.5241 -3.04099 -28.7261 28.5227 52.7033 -2.9396 -3.56575 -0.518893 -1.18447e-009 1.5602e-007 -4.87131e-009 
-174.869 96.6966 -391.595 5.44234 17.6317 175.261 -20.9319 -0.700463 12.2492 44.7315 44.1988 -40.997 -31.4361 2.10675 -1.41386 0.0462048 0.000533403 0.662642 5.18681 28.9499 -3.33675 -0.0225497 0.02818 0.0103005 10.7892 -1.1291 15.0467 4.41391e-032 3.18055e-015 -7.95139e-016 -138.301 -66.3801 -110.376 -58.5338 45.8919 -50.9068 18.8282 19.4487 -1.48074 2.45347 9.80623 1.94556 116.336 -8.38016 76.8175 11.0579 56.2316 103.038 29.1509 20.5641 4.71611 22.8634 -11.2994 -0.411324 -28.236 30.0828 51.7723 0.153477 -3.39533 -0.266181 -1.18446e-009 1.5602e-007 -4.87131e-009 
-175.877 96.8925 -392.362 5.3877 17.5748 174.731 -21.2151 0.174597 12.8215 42.0754 42.4299 -37.6187 -30.6277 1.60572 -1.44569 0.0462048 0.000533403 0.662642 3.57846 30.1694 -1.90901 -0.01822 0.03122 -0.000679569 9.98549 -2.43502 14.5121 3.97569e-016 0 -1.59028e-015 -131.248 -68.4585 -105.1 -55.2667 36.1206 -52.7993 14.825 21.4089 7.80504 -4.74659 10.8747 2.80399 121.105 -6.05807 79.8903 7.3696 56.2669 104.86 35.6915 22.3076 6.65368 22.4142 -11.3294 1.93669 -28.0506 31.6496 51.3602 5.13251 -2.99634 0.168123 -1.18447e-009 1.5602e-007 -4.87131e-009 
-176.906 97.042 -393.11 4.99524 16.5466 172.153 -22.4079 0.712008 14.5641 38.4754 38.3195 -32.6601 -30.2614 0.658234 -1.50312 0.0462048 0.000533403 0.662642 -0.135429 31.4471 1.82 -0.0381208 0.10246 -0.0399491 8.27627 -4.3427 13.9875 5.96354e-016 -3.18055e-015 -0 -117.06 -72.7897 -94.4963 -53.3104 22.1916 -53.3052 0.0202893 19.7365 19.0054 -12.6499 14.7897 -3.39243 123.304 3.21148 83.3576 2.92158 54.7047 105.599 41.4273 25.0431 -1.01029 22.4931 -11.8933 5.30088 -29.2729 33.4198 52.2344 12.3056 -2.08163 0.736601 -1.18446e-009 1.5602e-007 -4.87131e-009 
-177.864 97.2283 -393.816 4.45776 14.9053 167.852 -24.2192 0.587728 16.8796 35.6086 34.0821 -27.6219 -29.9383 -0.353439 -1.55702 0.0462048 0.000533403 0.662642 -5.24339 32.1562 6.37553 -0.0127116 0.08816 -0.0722897 5.57429 -6.06513 13.9386 -1.19271e-015 6.36111e-015 -0 -90.5383 -76.8693 -73.8915 -53.5734 7.162 -49.6648 -15.3559 19.4749 12.3513 -10.8691 12.0578 -3.55651 117.967 2.57171 85.3296 -3.83105 54.6129 105.924 22.1535 20.3582 15.8569 23.085 -12.5899 9.22682 -28.8792 35.2219 52.0683 17.5038 -1.43561 0.9801 -1.18446e-009 1.5602e-007 -4.87132e-009 
-178.732 97.4303 -394.42 3.91763 13.5739 163.985 -25.9425 0.378452 18.7931 33.7555 29.9275 -23.7957 -29.7379 -1.2731 -1.59326 0.0462048 0.000533403 0.662642 -9.86432 32.9183 8.82182 0.013488 0.0650099 -0.0858103 1.81892 -7.48764 14.2639 1.59028e-015 0 -0 -57.2885 -77.6528 -49.0081 -54.6784 -4.60018 -42.5755 -21.7355 25.9356 5.03907 -8.96063 9.03677 -2.84673 113.797 1.95121 86.3477 -6.42928 53.9968 105.722 34.8273 25.6274 -8.49053 23.3608 -13.3077 11.3562 -27.9003 36.4234 51.1537 21.7894 -0.861873 1.13709 -1.18446e-009 1.5602e-007 -4.87132e-009 
-179.512 97.6452 -394.871 3.49195 12.5256 160.519 -27.4808 0.0608755 20.3446 32.6848 25.9326 -20.9514 -29.6203 -2.08217 -1.61319 0.0462048 0.000533403 0.662642 -13.52 33.6706 9.13301 0.028338 0.0421999 -0.0867307 -1.72495 -9.12327 15.7861 3.53113e-031 6.36111e-015 -3.18055e-015 -32.9358 -76.3632 -33.3036 -55.6316 -12.1589 -36.6224 -25.4355 32.3101 -3.18716 -7.33848 6.15406 -1.16573 112.495 -2.00451 85.4679 -7.27488 52.6416 105.285 17.378 21.9269 10.3147 23.0926 -13.9291 11.7431 -26.6809 36.6478 49.7808 25.6448 -0.38561 1.24243 -1.18447e-009 1.5602e-007 -4.87131e-009 
-180.311 97.8126 -395.194 3.25117 11.7039 157.441 -28.872 -0.386707 21.5726 32.3162 22.2684 -18.9474 -29.5101 -2.8349 -1.61675 0.0462048 0.000533403 0.662642 -15.9285 34.4468 7.44895 0.0306783 0.0367899 -0.0742007 -5.11223 -11.0423 18.313 -1.59028e-015 6.36111e-015 -3.18055e-015 -19.2276 -74.3545 -27.5091 -55.9776 -16.6595 -32.9116 -26.7392 38.3465 -4.41251 2.8746 6.05997 -5.44354 104.902 -0.104371 84.3166 -6.75522 54.5797 107.566 25.9619 24.3397 7.08406 22.4061 -14.3616 10.5067 -27.0516 35.6646 50.6184 30.192 0.193401 1.35066 -1.18446e-009 1.5602e-007 -4.87132e-009 
-181.203 97.9196 -395.418 3.23383 11.0437 154.735 -30.2194 -0.897181 22.4998 32.8482 18.4268 -19.6582 -29.6913 -3.46922 -1.61298 0.0462048 0.000533403 0.662642 -16.8981 35.2019 3.95513 0.0387084 0.0318499 -0.0664309 -8.39047 -13.2275 21.6736 0 0 -6.36111e-015 -12.0675 -71.9252 -27.1805 -55.843 -19.5415 -31.3084 -27.3883 41.745 -7.38636 2.41234 4.48359 -0.645079 108.884 -6.23844 81.7278 -6.55629 54.8679 108.807 18.84 20.8637 19.1023 21.5032 -14.5541 7.80659 -28.1724 33.6287 53.0274 34.9762 0.847472 1.40362 -1.18446e-009 1.5602e-007 -4.87131e-009 
-182.29 97.9799 -395.619 3.44693 10.4958 152.379 -31.4632 -1.36065 23.1585 33.4291 15.1672 -20.2805 -29.4496 -3.97406 -1.62882 0.0462048 0.000533403 0.662642 -16.4156 35.86 -1.03185 0.0431287 0.0333199 -0.0553711 -11.5418 -15.672 25.6262 -1.59028e-015 6.36111e-015 -3.18055e-015 -8.43807 -69.301 -28.9719 -55.9702 -21.336 -31.5052 -29.8704 44.1856 -4.8835 1.91128 3.37748 4.48049 110.855 -9.34107 79.9417 -7.32912 55.5435 110.449 24.9506 23.9197 17.771 20.4996 -14.4579 3.80315 -29.4325 30.6281 56.5465 39.7652 1.54663 1.37554 -1.18447e-009 1.5602e-007 -4.87131e-009 
-183.585 97.9827 -395.877 3.85957 10.016 150.34 -32.5981 -1.75157 23.587 33.978 12.4592 -20.8208 -28.7293 -4.38441 -1.60154 0.0462048 0.000533403 0.662642 -15.4845 35.8453 -5.61129 -0.0106691 -0.00498997 0.0387903 -14.1244 -17.5078 28.9783 -3.18055e-015 6.36111e-015 9.54166e-015 -10.8985 -65.7163 -36.6151 -55.604 -22.6884 -32.4978 -27.8341 44.2783 -8.61931 11.2397 5.44852 1.52469 102.049 -4.2474 78.3566 -7.82737 56.0365 111.367 10.5497 21.2491 8.1903 19.5195 -14.1104 -1.32406 -30.5398 26.838 60.9577 44.4498 2.28073 1.24106 -1.18447e-009 1.5602e-007 -4.87131e-009 
-185.045 97.9103 -396.263 4.41856 9.57747 148.587 -33.6257 -2.07094 23.8217 34.4318 10.3092 -21.3132 -27.5293 -4.72859 -1.53974 0.0462048 0.000533403 0.662642 -14.3263 35.2683 -9.6164 -0.0143891 0.000360024 0.0379703 -16.2802 -18.7912 31.9603 -3.53113e-031 3.18055e-015 6.36111e-015 -15.0151 -63.1809 -44.5551 -59.4605 -18.7895 -34.3484 -17.6459 38.5253 3.36672 10.2683 6.37044 5.37355 104.545 -9.10251 75.694 -7.59599 54.9809 111.653 23.8518 24.0113 21.5949 18.5201 -13.5288 -6.26123 -30.8211 23.0289 65.0851 49.0009 3.00405 0.97117 -1.18447e-009 1.5602e-007 -4.87132e-009 
-186.543 97.7232 -396.861 5.07384 9.17417 147.104 -34.0487 -2.44992 23.8332 35.2653 10.8552 -22.853 -27.9421 -4.72796 -1.53886 0.0462048 0.000533403 0.662642 -13.1037 34.2561 -12.9296 -0.0149912 0.00644004 0.0347212 -18.0596 -19.4259 34.5011 -2.64834e-031 -1.59028e-015 -9.54166e-015 -23.7276 -60.7724 -55.8172 -62.9332 -14.547 -34.8517 -15.9411 35.6807 -11.7816 9.81999 7.72434 8.08496 105.475 -11.966 73.4236 -6.63169 51.6458 107.651 8.67936 19.3623 9.10811 17.658 -12.823 -10.9045 -30.7111 19.541 69.1689 53.3212 3.54167 0.619869 -1.18446e-009 1.5602e-007 -4.87131e-009 
-188.078 97.5116 -397.625 5.77043 8.80769 145.897 -34.4148 -2.93296 23.7149 35.826 11.247 -24.2643 -28.0606 -4.97182 -1.55789 0.0462048 0.000533403 0.662642 -11.9314 32.96 -15.4707 -0.0143475 0.01334 0.0319097 -19.5206 -19.4233 36.5456 -0 0 1.59028e-014 -36.3475 -58.8864 -69.0248 -61.9425 -10.7111 -31.1198 -15.5773 33.7036 0.438177 9.54246 9.37398 10.1859 106.287 -17.8743 69.6663 -6.01922 52.0315 110.092 15.5881 24.3366 17.3953 16.8036 -11.9905 -15.229 -30.1166 16.3088 73.0578 57.4955 4.06595 0.14086 -1.18446e-009 1.5602e-007 -4.87131e-009 
-189.523 97.2636 -398.581 6.46266 8.48204 144.998 -34.3639 -3.55934 23.4266 36.7407 13.6699 -26.1352 -28.7811 -4.83145 -1.55656 0.0462048 0.000533403 0.662642 -10.8284 31.5234 -17.2181 -0.0143397 0.02203 0.0328403 -19.4915 -18.1283 38.5957 -6.36111e-015 1.59028e-015 6.36111e-015 -51.3641 -58.5236 -82.9017 -61.4389 -5.92337 -24.5899 11.1759 24.6937 -15.7464 9.23081 11.1609 12.0477 106.461 -25.8147 65.1921 -1.07739 53.4377 107.34 5.69478 8.30449 9.37373 16.0584 -11.14 -19.2101 -29.4218 13.5103 76.8734 61.4588 4.42535 -0.372877 -1.18447e-009 1.5602e-007 -4.87131e-009 
-190.856 97.0381 -399.66 7.11438 8.21391 144.461 -34.1024 -4.32173 23.0032 37.9492 17.2825 -28.0548 -29.7174 -4.60875 -1.56738 0.0462048 0.000533403 0.662642 -9.48488 30.7893 -17.2655 -0.016387 0.0852801 0.11948 -18.6646 -16.0805 39.1472 3.18055e-015 1.59028e-015 -9.54166e-015 -71.1758 -58.1357 -100.295 -62.9281 -0.33918 -16.4464 4.04874 31.4446 -9.33329 9.69513 12.1434 12.0613 105.645 -31.2537 62.0891 5.95501 54.9667 98.1323 10.4211 12.074 23.8371 15.3665 -10.3125 -22.8746 -28.6623 11.1036 80.5194 65.2508 4.66828 -0.904497 -1.18446e-009 1.5602e-007 -4.87131e-009 
-192.033 96.8597 -400.783 7.68769 8.02142 144.36 -33.7128 -5.19618 22.4514 39.5003 21.6524 -29.7716 -31.2909 -4.20161 -1.62766 0.0462048 0.000533403 0.662642 -8.12864 30.568 -15.786 -0.0301572 0.0662001 0.113981 -18.1104 -13.859 37.8445 -5.29669e-031 4.77083e-015 6.36111e-015 -92.2305 -55.6633 -117.751 -63.7865 1.80777 -8.77988 24.2456 22.5948 -10.2917 18.981 16.7279 15.3989 95.1865 -44.1765 60.1386 14.7397 55.277 88.841 5.97985 18.4549 26.9525 15.0105 -9.70282 -25.1736 -28.1786 9.55415 82.9661 68.8593 4.82889 -1.35957 -1.18447e-009 1.5602e-007 -4.87131e-009 
